<?xml version="1.0" encoding="UTF-8" standalone="no"?>
<!DOCTYPE svg PUBLIC "-//W3C//DTD SVG 1.0//EN"
 "http://www.w3.org/TR/2001/REC-SVG-20010904/DTD/svg10.dtd" [
 <!ATTLIST svg xmlns:xlink CDATA #FIXED "http://www.w3.org/1999/xlink">
]>
<!-- Generated by Graphviz version 2.20.2 (Tue Mar &#160;2 21:46:26 UTC 2010)
     For user: (yals) Simon Laszlo,,, -->
<!-- Title: _anonymous_0 Pages: 1 -->
<svg width="483pt" height="592pt"
 viewBox="0.00 0.00 483.00 592.00" xmlns="http://www.w3.org/2000/svg" xmlns:xlink="http://www.w3.org/1999/xlink">
<g id="graph0" class="graph" transform="scale(1 1) rotate(0) translate(4 588)">
<title>_anonymous_0</title>
<polygon style="fill:#3f3f6f;stroke:#3f3f6f;" points="-4,4 -4,-588 479,-588 479,4 -4,4"/>
<!-- menu -->
<g id="node1" class="node"><title>menu</title>
<polygon style="fill:none;stroke:white;" points="83,-336 29,-336 29,-300 83,-300 83,-336"/>
<text text-anchor="middle" x="56" y="-315.5" style="font-family:sans;font-size:10.00;fill:white;">menu</text>
</g>
<!-- dm3 -->
<g id="node5" class="node"><title>dm3</title>
<polygon style="fill:none;stroke:white;" points="127,-110 37,-110 37,-74 127,-74 127,-110"/>
<text text-anchor="middle" x="82" y="-89.5" style="font-family:sans;font-size:10.00;fill:white;">3D&#45;draw&#45;modul</text>
</g>
<!-- menu&#45;&gt;dm3 -->
<g id="edge31" class="edge"><title>menu&#45;&gt;dm3</title>
<path style="fill:none;stroke:white;" d="M54,-300C52,-282 49,-253 48,-228 48,-221 48,-220 48,-214 52,-181 64,-144 72,-120"/>
<polygon style="fill:white;stroke:white;" points="75.4788,-120.584 75,-110 68.7741,-118.573 75.4788,-120.584"/>
<text text-anchor="middle" x="76" y="-218.5" style="font-family:sans;font-size:10.00;fill:white;">menu text</text>
</g>
<!-- main -->
<g id="node2" class="node"><title>main</title>
<polygon style="fill:none;stroke:white;" points="186,-584 132,-584 132,-548 186,-548 186,-584"/>
<text text-anchor="middle" x="159" y="-563.5" style="font-family:sans;font-size:10.00;fill:white;">main</text>
</g>
<!-- ui -->
<g id="node3" class="node"><title>ui</title>
<polygon style="fill:none;stroke:white;" points="144,-498 74,-498 74,-462 144,-462 144,-498"/>
<text text-anchor="middle" x="109" y="-477.5" style="font-family:sans;font-size:10.00;fill:white;">UI&#45;handling</text>
</g>
<!-- main&#45;&gt;ui -->
<g id="edge11" class="edge"><title>main&#45;&gt;ui</title>
<path style="fill:none;stroke:white;" d="M148,-548C142,-536 132,-520 124,-507"/>
<polygon style="fill:white;stroke:white;" points="126.916,-505.042 119,-498 120.797,-508.441 126.916,-505.042"/>
</g>
<!-- ai -->
<g id="node6" class="node"><title>ai</title>
<polygon style="fill:none;stroke:white;" points="258,-498 162,-498 162,-462 258,-462 258,-498"/>
<text text-anchor="middle" x="210" y="-477.5" style="font-family:sans;font-size:10.00;fill:white;">computer&#45;gamer</text>
</g>
<!-- main&#45;&gt;ai -->
<g id="edge2" class="edge"><title>main&#45;&gt;ai</title>
<path style="fill:none;stroke:white;" d="M170,-548C177,-536 187,-520 194,-507"/>
<polygon style="fill:white;stroke:white;" points="197.203,-508.441 199,-498 191.084,-505.042 197.203,-508.441"/>
</g>
<!-- tr -->
<g id="node9" class="node"><title>tr</title>
<polygon style="fill:none;stroke:white;" points="412,-444 338,-444 338,-408 412,-408 412,-444"/>
<text text-anchor="middle" x="375" y="-423.5" style="font-family:sans;font-size:10.00;fill:white;">tetris&#45;modul</text>
</g>
<!-- main&#45;&gt;tr -->
<g id="edge25" class="edge"><title>main&#45;&gt;tr</title>
<path style="fill:none;stroke:white;" d="M186,-549C208,-535 239,-515 267,-498 292,-482 319,-464 340,-450"/>
<polygon style="fill:white;stroke:white;" points="342.1,-452.8 348,-444 337.9,-447.2 342.1,-452.8"/>
<text text-anchor="middle" x="251" y="-520.5" style="font-family:sans;font-size:10.00;fill:white;">trigger</text>
</g>
<!-- GL -->
<g id="node11" class="node"><title>GL</title>
<ellipse style="fill:none;stroke:white;" cx="33" cy="-18" rx="33.2417" ry="18"/>
<text text-anchor="middle" x="33" y="-15.5" style="font-family:sans;font-size:10.00;fill:white;">OpenGL</text>
</g>
<!-- main&#45;&gt;GL -->
<g id="edge33" class="edge"><title>main&#45;&gt;GL</title>
<path style="fill:none;stroke:white;" d="M132,-563C89,-556 9,-535 9,-480 9,-480 9,-480 9,-92 9,-76 14,-59 20,-45"/>
<polygon style="fill:white;stroke:white;" points="23.1369,-46.5596 24,-36 16.7402,-43.7166 23.1369,-46.5596"/>
</g>
<!-- ui&#45;&gt;menu -->
<g id="edge29" class="edge"><title>ui&#45;&gt;menu</title>
<path style="fill:none;stroke:white;" d="M102,-462C100,-456 97,-450 95,-444 84,-410 72,-371 64,-346"/>
<polygon style="fill:white;stroke:white;" points="67.2259,-344.573 61,-336 60.5212,-346.584 67.2259,-344.573"/>
</g>
<!-- dm4 -->
<g id="node4" class="node"><title>dm4</title>
<polygon style="fill:none;stroke:white;" points="201,-196 111,-196 111,-160 201,-160 201,-196"/>
<text text-anchor="middle" x="156" y="-175.5" style="font-family:sans;font-size:10.00;fill:white;">4D&#45;draw&#45;modul</text>
</g>
<!-- ui&#45;&gt;dm4 -->
<g id="edge13" class="edge"><title>ui&#45;&gt;dm4</title>
<path style="fill:none;stroke:white;" d="M107,-462C104,-429 100,-358 110,-300 116,-266 132,-229 143,-205"/>
<polygon style="fill:white;stroke:white;" points="146.137,-206.56 147,-196 139.74,-203.717 146.137,-206.56"/>
<text text-anchor="middle" x="143" y="-315.5" style="font-family:sans;font-size:10.00;fill:white;">camera move</text>
</g>
<!-- mdm -->
<g id="node7" class="node"><title>mdm</title>
<polygon style="fill:none;stroke:white;" points="330,-390 234,-390 234,-354 330,-354 330,-390"/>
<text text-anchor="middle" x="282" y="-369.5" style="font-family:sans;font-size:10.00;fill:white;">model&#45;dynamics</text>
</g>
<!-- ui&#45;&gt;mdm -->
<g id="edge15" class="edge"><title>ui&#45;&gt;mdm</title>
<path style="fill:none;stroke:white;" d="M135,-462C157,-447 189,-425 218,-408 224,-404 231,-400 238,-396"/>
<polygon style="fill:white;stroke:white;" points="240.621,-398.459 247,-390 236.738,-392.635 240.621,-398.459"/>
<text text-anchor="middle" x="257" y="-423.5" style="font-family:sans;font-size:10.00;fill:white;">90 deg rotations</text>
</g>
<!-- dm4&#45;&gt;dm3 -->
<g id="edge21" class="edge"><title>dm4&#45;&gt;dm3</title>
<path style="fill:none;stroke:white;" d="M140,-160C130,-147 116,-131 104,-118"/>
<polygon style="fill:white;stroke:white;" points="106.8,-115.9 98,-110 101.2,-120.1 106.8,-115.9"/>
<text text-anchor="middle" x="152" y="-132.5" style="font-family:sans;font-size:10.00;fill:white;">faces in 3D</text>
</g>
<!-- dm3&#45;&gt;GL -->
<g id="edge23" class="edge"><title>dm3&#45;&gt;GL</title>
<path style="fill:none;stroke:white;" d="M70,-74C64,-65 56,-54 50,-44"/>
<polygon style="fill:white;stroke:white;" points="52.4592,-41.3791 44,-35 46.6349,-45.262 52.4592,-41.3791"/>
</g>
<!-- ai&#45;&gt;dm4 -->
<g id="edge4" class="edge"><title>ai&#45;&gt;dm4</title>
<path style="fill:none;stroke:white;" d="M207,-462C198,-411 172,-268 161,-206"/>
<polygon style="fill:white;stroke:white;" points="164.393,-205.119 159,-196 157.529,-206.492 164.393,-205.119"/>
</g>
<!-- ai&#45;&gt;mdm -->
<g id="edge8" class="edge"><title>ai&#45;&gt;mdm</title>
<path style="fill:none;stroke:white;" d="M258,-467C278,-460 298,-452 304,-444 313,-430 308,-413 300,-399"/>
<polygon style="fill:white;stroke:white;" points="302.916,-397.042 295,-390 296.797,-400.441 302.916,-397.042"/>
</g>
<!-- m4d -->
<g id="node8" class="node"><title>m4d</title>
<polygon style="fill:none;stroke:white;" points="335,-282 273,-282 273,-246 335,-246 335,-282"/>
<text text-anchor="middle" x="304" y="-261.5" style="font-family:sans;font-size:10.00;fill:white;">4D&#45;model</text>
</g>
<!-- mdm&#45;&gt;m4d -->
<g id="edge17" class="edge"><title>mdm&#45;&gt;m4d</title>
<path style="fill:none;stroke:white;" d="M271,-354C263,-339 255,-317 263,-300 265,-296 267,-293 269,-290"/>
<polygon style="fill:white;stroke:white;" points="272.049,-291.831 276,-282 266.781,-287.221 272.049,-291.831"/>
<text text-anchor="middle" x="313" y="-315.5" style="font-family:sans;font-size:10.00;fill:white;">small angle rotations</text>
</g>
<!-- l4d -->
<g id="node10" class="node"><title>l4d</title>
<polygon style="fill:none;stroke:white;" points="424,-196 362,-196 362,-160 424,-160 424,-196"/>
<text text-anchor="middle" x="393" y="-175.5" style="font-family:sans;font-size:10.00;fill:white;">4D&#45;library</text>
</g>
<!-- mdm&#45;&gt;l4d -->
<g id="edge9" class="edge"><title>mdm&#45;&gt;l4d</title>
<path style="fill:none;stroke:white;" d="M330,-361C344,-356 358,-348 368,-336 397,-299 398,-241 396,-206"/>
<polygon style="fill:white;stroke:white;" points="399.478,-205.602 395,-196 392.512,-206.299 399.478,-205.602"/>
</g>
<!-- m4d&#45;&gt;dm4 -->
<g id="edge19" class="edge"><title>m4d&#45;&gt;dm4</title>
<path style="fill:none;stroke:white;" d="M273,-253C256,-247 235,-238 218,-228 209,-222 209,-220 202,-214 198,-210 193,-206 188,-202"/>
<polygon style="fill:white;stroke:white;" points="190.1,-199.2 180,-196 185.9,-204.8 190.1,-199.2"/>
<text text-anchor="middle" x="292" y="-218.5" style="font-family:sans;font-size:10.00;fill:white;">vertices, faces of blocks in 4D</text>
</g>
<!-- m4d&#45;&gt;l4d -->
<g id="edge6" class="edge"><title>m4d&#45;&gt;l4d</title>
<path style="fill:none;stroke:white;" d="M335,-251C346,-245 358,-237 367,-228 373,-222 378,-213 382,-205"/>
<polygon style="fill:white;stroke:white;" points="385.137,-206.56 386,-196 378.74,-203.717 385.137,-206.56"/>
</g>
<!-- tr&#45;&gt;m4d -->
<g id="edge27" class="edge"><title>tr&#45;&gt;m4d</title>
<path style="fill:none;stroke:white;" d="M378,-408C382,-381 384,-333 364,-300 359,-292 352,-285 344,-280"/>
<polygon style="fill:white;stroke:white;" points="345.441,-276.797 335,-275 342.042,-282.916 345.441,-276.797"/>
<text text-anchor="middle" x="427" y="-369.5" style="font-family:sans;font-size:10.00;fill:white;">check/do tetris rules</text>
</g>
</g>
</svg>
