<?xml version="1.0" encoding="UTF-8" standalone="no"?>
<!DOCTYPE svg PUBLIC "-//W3C//DTD SVG 1.0//EN"
 "http://www.w3.org/TR/2001/REC-SVG-20010904/DTD/svg10.dtd" [
 <!ATTLIST svg xmlns:xlink CDATA #FIXED "http://www.w3.org/1999/xlink">
]>
<!-- Generated by Graphviz version 2.20.2 (Tue Mar &#160;2 21:46:26 UTC 2010)
     For user: (yals) Simon Laszlo,,, -->
<!-- Title: _anonymous_0 Pages: 1 -->
<svg width="171pt" height="548pt"
 viewBox="0.00 0.00 171.00 548.00" xmlns="http://www.w3.org/2000/svg" xmlns:xlink="http://www.w3.org/1999/xlink">
<g id="graph0" class="graph" transform="scale(1 1) rotate(0) translate(4 544)">
<title>_anonymous_0</title>
<polygon style="fill:white;stroke:white;" points="-4,4 -4,-544 167,-544 167,4 -4,4"/>
<!-- Start -->
<g id="node1" class="node"><title>Start</title>
<ellipse style="fill:none;stroke:black;" cx="113" cy="-522" rx="27" ry="18"/>
<text text-anchor="middle" x="113" y="-519.5" style="font-family:sans;font-size:10.00;">Start</text>
</g>
<!-- New_block -->
<g id="node3" class="node"><title>New_block</title>
<polygon style="fill:none;stroke:black;" points="146,-468 80,-468 80,-432 146,-432 146,-468"/>
<text text-anchor="middle" x="113" y="-447.5" style="font-family:sans;font-size:10.00;">New_block</text>
</g>
<!-- Start&#45;&gt;New_block -->
<g id="edge2" class="edge"><title>Start&#45;&gt;New_block</title>
<path style="fill:none;stroke:black;" d="M113,-504C113,-496 113,-487 113,-478"/>
<polygon style="fill:black;stroke:black;" points="116.5,-478 113,-468 109.5,-478 116.5,-478"/>
</g>
<!-- Fall_down -->
<g id="node4" class="node"><title>Fall_down</title>
<polygon style="fill:none;stroke:black;" points="114,-396 54,-396 54,-360 114,-360 114,-396"/>
<text text-anchor="middle" x="84" y="-375.5" style="font-family:sans;font-size:10.00;">Fall_down</text>
</g>
<!-- New_block&#45;&gt;Fall_down -->
<g id="edge3" class="edge"><title>New_block&#45;&gt;Fall_down</title>
<path style="fill:none;stroke:black;" d="M106,-432C102,-424 99,-414 95,-405"/>
<polygon style="fill:black;stroke:black;" points="98.2598,-403.717 91,-396 91.8631,-406.56 98.2598,-403.717"/>
</g>
<!-- Wait -->
<g id="node5" class="node"><title>Wait</title>
<polygon style="fill:none;stroke:black;" points="66,-324 12,-324 12,-288 66,-288 66,-324"/>
<text text-anchor="middle" x="39" y="-303.5" style="font-family:sans;font-size:10.00;">Wait</text>
</g>
<!-- Fall_down&#45;&gt;Wait -->
<g id="edge4" class="edge"><title>Fall_down&#45;&gt;Wait</title>
<path style="fill:none;stroke:black;" d="M73,-360C68,-352 61,-342 55,-332"/>
<polygon style="fill:black;stroke:black;" points="58.268,-330.625 50,-324 52.332,-334.335 58.268,-330.625"/>
</g>
<!-- Check_lending -->
<g id="node6" class="node"><title>Check_lending</title>
<polygon style="fill:none;stroke:black;" points="57,-252 5.17344,-234 57,-216 108.827,-234 57,-252"/>
<text text-anchor="middle" x="57" y="-231.5" style="font-family:sans;font-size:10.00;">Check_lending</text>
</g>
<!-- Wait&#45;&gt;Check_lending -->
<g id="edge5" class="edge"><title>Wait&#45;&gt;Check_lending</title>
<path style="fill:none;stroke:black;" d="M44,-288C46,-280 48,-270 51,-261"/>
<polygon style="fill:black;stroke:black;" points="54.4708,-261.492 53,-251 47.6067,-260.119 54.4708,-261.492"/>
</g>
<!-- Check_lending&#45;&gt;Fall_down -->
<g id="edge12" class="edge"><title>Check_lending&#45;&gt;Fall_down</title>
<path style="fill:none;stroke:black;" d="M63,-250C67,-261 72,-275 75,-288 79,-308 81,-332 82,-350"/>
<polygon style="fill:black;stroke:black;" points="78.5222,-350.398 83,-360 85.4875,-349.701 78.5222,-350.398"/>
</g>
<!-- Remove_filled_levels -->
<g id="node7" class="node"><title>Remove_filled_levels</title>
<polygon style="fill:none;stroke:black;" points="114,-180 2.84217e-14,-180 7.10543e-15,-144 114,-144 114,-180"/>
<text text-anchor="middle" x="57" y="-159.5" style="font-family:sans;font-size:10.00;">Remove_filled_levels</text>
</g>
<!-- Check_lending&#45;&gt;Remove_filled_levels -->
<g id="edge6" class="edge"><title>Check_lending&#45;&gt;Remove_filled_levels</title>
<path style="fill:none;stroke:black;" d="M57,-216C57,-208 57,-199 57,-190"/>
<polygon style="fill:black;stroke:black;" points="60.5001,-190 57,-180 53.5001,-190 60.5001,-190"/>
</g>
<!-- Check_game_over -->
<g id="node8" class="node"><title>Check_game_over</title>
<polygon style="fill:none;stroke:black;" points="99,-108 34.8644,-90 99,-72 163.136,-90 99,-108"/>
<text text-anchor="middle" x="99" y="-87.5" style="font-family:sans;font-size:10.00;">Check_game_over</text>
</g>
<!-- Remove_filled_levels&#45;&gt;Check_game_over -->
<g id="edge7" class="edge"><title>Remove_filled_levels&#45;&gt;Check_game_over</title>
<path style="fill:none;stroke:black;" d="M68,-144C73,-135 79,-124 85,-115"/>
<polygon style="fill:black;stroke:black;" points="88.2031,-116.441 90,-106 82.084,-113.042 88.2031,-116.441"/>
</g>
<!-- Check_game_over&#45;&gt;New_block -->
<g id="edge10" class="edge"><title>Check_game_over&#45;&gt;New_block</title>
<path style="fill:none;stroke:black;" d="M107,-106C120,-132 142,-186 142,-234 142,-306 142,-306 142,-306 142,-347 131,-393 122,-422"/>
<polygon style="fill:black;stroke:black;" points="118.521,-421.416 119,-432 125.226,-423.427 118.521,-421.416"/>
</g>
<!-- Stop -->
<g id="node9" class="node"><title>Stop</title>
<ellipse style="fill:none;stroke:black;" cx="99" cy="-18" rx="27" ry="18"/>
<text text-anchor="middle" x="99" y="-15.5" style="font-family:sans;font-size:10.00;">Stop</text>
</g>
<!-- Check_game_over&#45;&gt;Stop -->
<g id="edge8" class="edge"><title>Check_game_over&#45;&gt;Stop</title>
<path style="fill:none;stroke:black;" d="M99,-72C99,-64 99,-55 99,-46"/>
<polygon style="fill:black;stroke:black;" points="102.5,-46 99,-36 95.5001,-46 102.5,-46"/>
</g>
</g>
</svg>
